<svg viewBox="0 0 48 19" fill="none" xmlns="http://www.w3.org/2000/svg">
<path d="M0.977295 11.3181V7.22723L13.6591 2.14768V6.44314L5.57957 9.23859L5.71593 9.03405V9.51132L5.57957 9.30677L13.6591 12.1022V16.3977L0.977295 11.3181Z" fill="url(#paint0_linear_56_5)"/>
<path d="M27.0952 0.54541H31.8338V11.7272C31.8338 13.0568 31.5156 14.2073 30.8793 15.1789C30.2486 16.1448 29.3679 16.892 28.2372 17.4204C27.1066 17.9431 25.7941 18.2045 24.2997 18.2045C22.7941 18.2045 21.4759 17.9431 20.3452 17.4204C19.2145 16.892 18.3338 16.1448 17.7031 15.1789C17.0781 14.2073 16.7656 13.0568 16.7656 11.7272V0.54541H21.5043V11.3181C21.5043 11.8579 21.6236 12.3409 21.8622 12.767C22.1009 13.1875 22.4304 13.517 22.8509 13.7556C23.277 13.9943 23.76 14.1136 24.2997 14.1136C24.8452 14.1136 25.3281 13.9943 25.7486 13.7556C26.1691 13.517 26.4986 13.1875 26.7372 12.767C26.9759 12.3409 27.0952 11.8579 27.0952 11.3181V0.54541Z" fill="url(#paint1_linear_56_5)"/>
<path d="M47.6201 11.3181L34.9382 16.3977V12.1022L43.0178 9.30677L42.8814 9.51132V9.03405L43.0178 9.23859L34.9382 6.44314V2.14768L47.6201 7.22723V11.3181Z" fill="url(#paint2_linear_56_5)"/>
<defs>
<linearGradient id="paint0_linear_56_5" x1="-0.999999" y1="0.999998" x2="50" y2="24" gradientUnits="userSpaceOnUse">
<stop stop-color="#3B82F6"/>
<stop offset="1" stop-color="#1451B5"/>
</linearGradient>
<linearGradient id="paint1_linear_56_5" x1="-0.999999" y1="0.999998" x2="50" y2="24" gradientUnits="userSpaceOnUse">
<stop stop-color="#3B82F6"/>
<stop offset="1" stop-color="#1451B5"/>
</linearGradient>
<linearGradient id="paint2_linear_56_5" x1="-0.999999" y1="0.999998" x2="50" y2="24" gradientUnits="userSpaceOnUse">
<stop stop-color="#3B82F6"/>
<stop offset="1" stop-color="#1451B5"/>
</linearGradient>
</defs>
</svg>
